<mxfile host="Electron" agent="Mozilla/5.0 (Windows NT 10.0; Win64; x64) AppleWebKit/537.36 (KHTML, like Gecko) draw.io/24.7.17 Chrome/128.0.6613.36 Electron/32.0.1 Safari/537.36" version="24.7.17">
  <diagram name="Page-1" id="gGFluzdm01MkkDhxUG0z">
    <mxGraphModel dx="1542" dy="420" grid="1" gridSize="10" guides="1" tooltips="1" connect="1" arrows="1" fold="1" page="1" pageScale="1" pageWidth="827" pageHeight="1169" math="1" shadow="0">
      <root>
        <mxCell id="0" />
        <mxCell id="1" parent="0" />
        <mxCell id="9Q2h810ez7nCe8UWZcNo-1" value="&lt;font face=&quot;Roboto Mono&quot;&gt;rolling_forecast(df)&lt;/font&gt;" style="text;html=1;align=left;verticalAlign=top;rounded=0;spacing=0;spacingLeft=6;" parent="1" vertex="1">
          <mxGeometry x="40" y="290" width="140" height="20" as="geometry" />
        </mxCell>
        <mxCell id="9Q2h810ez7nCe8UWZcNo-2" value="\(y_{499}\)" style="rounded=0;whiteSpace=wrap;html=1;fillColor=#dae8fc;strokeColor=#6c8ebf;" parent="1" vertex="1">
          <mxGeometry x="260" y="40" width="30" height="20" as="geometry" />
        </mxCell>
        <mxCell id="9Q2h810ez7nCe8UWZcNo-3" value="\(y_{0}\)" style="rounded=0;whiteSpace=wrap;html=1;fillColor=#dae8fc;strokeColor=#6c8ebf;" parent="1" vertex="1">
          <mxGeometry x="40" y="40" width="30" height="20" as="geometry" />
        </mxCell>
        <mxCell id="9Q2h810ez7nCe8UWZcNo-4" value="\(y_{1}\)" style="rounded=0;whiteSpace=wrap;html=1;fillColor=#dae8fc;strokeColor=#6c8ebf;" parent="1" vertex="1">
          <mxGeometry x="70" y="40" width="30" height="20" as="geometry" />
        </mxCell>
        <mxCell id="9Q2h810ez7nCe8UWZcNo-5" value="\(y_{2}\)" style="rounded=0;whiteSpace=wrap;html=1;fillColor=#dae8fc;strokeColor=#6c8ebf;" parent="1" vertex="1">
          <mxGeometry x="100" y="40" width="30" height="20" as="geometry" />
        </mxCell>
        <mxCell id="9Q2h810ez7nCe8UWZcNo-6" value="\(y_{498}\)" style="rounded=0;whiteSpace=wrap;html=1;fillColor=#dae8fc;strokeColor=#6c8ebf;" parent="1" vertex="1">
          <mxGeometry x="230" y="40" width="30" height="20" as="geometry" />
        </mxCell>
        <mxCell id="9Q2h810ez7nCe8UWZcNo-7" value="\(y_{497}\)" style="rounded=0;whiteSpace=wrap;html=1;fillColor=#dae8fc;strokeColor=#6c8ebf;" parent="1" vertex="1">
          <mxGeometry x="200" y="40" width="30" height="20" as="geometry" />
        </mxCell>
        <mxCell id="9Q2h810ez7nCe8UWZcNo-8" value="" style="shape=waypoint;sketch=0;fillStyle=solid;size=6;pointerEvents=1;points=[];fillColor=none;resizable=0;rotatable=0;perimeter=centerPerimeter;snapToPoint=1;" parent="1" vertex="1">
          <mxGeometry x="160.18" y="40" width="20" height="20" as="geometry" />
        </mxCell>
        <mxCell id="9Q2h810ez7nCe8UWZcNo-9" value="" style="shape=waypoint;sketch=0;fillStyle=solid;size=6;pointerEvents=1;points=[];fillColor=none;resizable=0;rotatable=0;perimeter=centerPerimeter;snapToPoint=1;" parent="1" vertex="1">
          <mxGeometry x="170.18" y="40" width="20" height="20" as="geometry" />
        </mxCell>
        <mxCell id="9Q2h810ez7nCe8UWZcNo-10" value="" style="shape=waypoint;sketch=0;fillStyle=solid;size=6;pointerEvents=1;points=[];fillColor=none;resizable=0;rotatable=0;perimeter=centerPerimeter;snapToPoint=1;" parent="1" vertex="1">
          <mxGeometry x="180.18" y="40" width="20" height="20" as="geometry" />
        </mxCell>
        <mxCell id="9Q2h810ez7nCe8UWZcNo-13" value="&lt;font face=&quot;Roboto Mono&quot;&gt;df_widget&lt;/font&gt;" style="text;align=left;verticalAlign=top;rounded=0;spacing=0;spacingLeft=6;html=1;" parent="1" vertex="1">
          <mxGeometry x="40" y="10" width="80" height="20" as="geometry" />
        </mxCell>
        <mxCell id="9Q2h810ez7nCe8UWZcNo-14" value="&lt;font face=&quot;Roboto Mono&quot;&gt;df_widget_diff&lt;/font&gt;" style="text;html=1;align=left;verticalAlign=top;rounded=0;spacing=0;spacingLeft=6;" parent="1" vertex="1">
          <mxGeometry x="40" y="140" width="110" height="20" as="geometry" />
        </mxCell>
        <mxCell id="9Q2h810ez7nCe8UWZcNo-15" value="&lt;font face=&quot;Roboto Mono&quot;&gt;\(y_i&#39; = y_i - y_{i-1}\)&lt;/font&gt;" style="text;html=1;align=left;verticalAlign=top;rounded=0;spacing=0;spacingLeft=6;" parent="1" vertex="1">
          <mxGeometry x="300" y="60" width="100" height="30" as="geometry" />
        </mxCell>
        <mxCell id="9Q2h810ez7nCe8UWZcNo-20" value="" style="endArrow=none;html=1;rounded=0;" parent="1" edge="1">
          <mxGeometry width="50" height="50" relative="1" as="geometry">
            <mxPoint x="45" y="66" as="sourcePoint" />
            <mxPoint x="95" y="66" as="targetPoint" />
            <Array as="points">
              <mxPoint x="80" y="85" />
            </Array>
          </mxGeometry>
        </mxCell>
        <mxCell id="9Q2h810ez7nCe8UWZcNo-21" value="" style="endArrow=none;html=1;rounded=0;" parent="1" edge="1">
          <mxGeometry width="50" height="50" relative="1" as="geometry">
            <mxPoint x="74" y="65" as="sourcePoint" />
            <mxPoint x="125" y="65" as="targetPoint" />
            <Array as="points">
              <mxPoint x="110" y="85" />
            </Array>
          </mxGeometry>
        </mxCell>
        <mxCell id="9Q2h810ez7nCe8UWZcNo-22" value="\(y_{1}&#39;\)" style="rounded=0;whiteSpace=wrap;html=1;fillColor=#d5e8d4;strokeColor=#82b366;" parent="1" vertex="1">
          <mxGeometry x="70" y="90" width="30" height="20" as="geometry" />
        </mxCell>
        <mxCell id="9Q2h810ez7nCe8UWZcNo-23" value="\(y_{2}&#39;\)" style="rounded=0;whiteSpace=wrap;html=1;fillColor=#d5e8d4;strokeColor=#82b366;" parent="1" vertex="1">
          <mxGeometry x="100" y="90" width="30" height="20" as="geometry" />
        </mxCell>
        <mxCell id="9Q2h810ez7nCe8UWZcNo-29" value="\(y_{499}&#39;\)" style="rounded=0;whiteSpace=wrap;html=1;fillColor=#d5e8d4;strokeColor=#82b366;" parent="1" vertex="1">
          <mxGeometry x="260" y="90" width="30" height="20" as="geometry" />
        </mxCell>
        <mxCell id="9Q2h810ez7nCe8UWZcNo-30" value="\(y_{498}&#39;\)" style="rounded=0;whiteSpace=wrap;html=1;fillColor=#d5e8d4;strokeColor=#82b366;" parent="1" vertex="1">
          <mxGeometry x="230" y="90" width="30" height="20" as="geometry" />
        </mxCell>
        <mxCell id="9Q2h810ez7nCe8UWZcNo-31" value="\(y_{497}&#39;\)" style="rounded=0;whiteSpace=wrap;html=1;fillColor=#d5e8d4;strokeColor=#82b366;" parent="1" vertex="1">
          <mxGeometry x="200" y="90" width="30" height="20" as="geometry" />
        </mxCell>
        <mxCell id="9Q2h810ez7nCe8UWZcNo-32" value="" style="shape=waypoint;sketch=0;fillStyle=solid;size=6;pointerEvents=1;points=[];fillColor=none;resizable=0;rotatable=0;perimeter=centerPerimeter;snapToPoint=1;" parent="1" vertex="1">
          <mxGeometry x="160" y="90" width="20" height="20" as="geometry" />
        </mxCell>
        <mxCell id="9Q2h810ez7nCe8UWZcNo-33" value="" style="shape=waypoint;sketch=0;fillStyle=solid;size=6;pointerEvents=1;points=[];fillColor=none;resizable=0;rotatable=0;perimeter=centerPerimeter;snapToPoint=1;" parent="1" vertex="1">
          <mxGeometry x="170" y="90" width="20" height="20" as="geometry" />
        </mxCell>
        <mxCell id="9Q2h810ez7nCe8UWZcNo-34" value="" style="shape=waypoint;sketch=0;fillStyle=solid;size=6;pointerEvents=1;points=[];fillColor=none;resizable=0;rotatable=0;perimeter=centerPerimeter;snapToPoint=1;" parent="1" vertex="1">
          <mxGeometry x="180" y="90" width="20" height="20" as="geometry" />
        </mxCell>
        <mxCell id="9Q2h810ez7nCe8UWZcNo-43" value="\(y_{1}&#39;\)" style="rounded=0;whiteSpace=wrap;html=1;fillColor=#d5e8d4;strokeColor=#82b366;" parent="1" vertex="1">
          <mxGeometry x="70" y="169.75" width="30" height="20" as="geometry" />
        </mxCell>
        <mxCell id="9Q2h810ez7nCe8UWZcNo-44" value="\(y_{2}&#39;\)" style="rounded=0;whiteSpace=wrap;html=1;fillColor=#d5e8d4;strokeColor=#82b366;" parent="1" vertex="1">
          <mxGeometry x="100" y="169.75" width="30" height="20" as="geometry" />
        </mxCell>
        <mxCell id="9Q2h810ez7nCe8UWZcNo-48" value="" style="shape=waypoint;sketch=0;fillStyle=solid;size=6;pointerEvents=1;points=[];fillColor=none;resizable=0;rotatable=0;perimeter=centerPerimeter;snapToPoint=1;" parent="1" vertex="1">
          <mxGeometry x="160" y="169.75" width="20" height="20" as="geometry" />
        </mxCell>
        <mxCell id="9Q2h810ez7nCe8UWZcNo-49" value="" style="shape=waypoint;sketch=0;fillStyle=solid;size=6;pointerEvents=1;points=[];fillColor=none;resizable=0;rotatable=0;perimeter=centerPerimeter;snapToPoint=1;" parent="1" vertex="1">
          <mxGeometry x="170" y="169.75" width="20" height="20" as="geometry" />
        </mxCell>
        <mxCell id="9Q2h810ez7nCe8UWZcNo-50" value="" style="shape=waypoint;sketch=0;fillStyle=solid;size=6;pointerEvents=1;points=[];fillColor=none;resizable=0;rotatable=0;perimeter=centerPerimeter;snapToPoint=1;" parent="1" vertex="1">
          <mxGeometry x="180" y="169.75" width="20" height="20" as="geometry" />
        </mxCell>
        <mxCell id="9Q2h810ez7nCe8UWZcNo-51" value="\(y_{3}&#39;\)" style="rounded=0;whiteSpace=wrap;html=1;fillColor=#d5e8d4;strokeColor=#82b366;" parent="1" vertex="1">
          <mxGeometry x="130" y="169.75" width="30" height="20" as="geometry" />
        </mxCell>
        <mxCell id="9Q2h810ez7nCe8UWZcNo-52" value="\(y_{449}&#39;\)" style="rounded=0;whiteSpace=wrap;html=1;fillColor=#d5e8d4;strokeColor=#82b366;" parent="1" vertex="1">
          <mxGeometry x="200" y="169.75" width="30" height="20" as="geometry" />
        </mxCell>
        <mxCell id="9Q2h810ez7nCe8UWZcNo-53" value="\(y_{450}&#39;\)" style="rounded=0;whiteSpace=wrap;html=1;fillColor=#ffe6cc;strokeColor=#d79b00;" parent="1" vertex="1">
          <mxGeometry x="230" y="169.75" width="30" height="20" as="geometry" />
        </mxCell>
        <mxCell id="9Q2h810ez7nCe8UWZcNo-55" value="\(y_{451}&#39;\)" style="rounded=0;whiteSpace=wrap;html=1;fillColor=#ffe6cc;strokeColor=#d79b00;" parent="1" vertex="1">
          <mxGeometry x="260" y="169.75" width="30" height="20" as="geometry" />
        </mxCell>
        <mxCell id="9Q2h810ez7nCe8UWZcNo-56" value="" style="shape=waypoint;sketch=0;fillStyle=solid;size=6;pointerEvents=1;points=[];fillColor=none;resizable=0;rotatable=0;perimeter=centerPerimeter;snapToPoint=1;" parent="1" vertex="1">
          <mxGeometry x="290" y="169.75" width="20" height="20" as="geometry" />
        </mxCell>
        <mxCell id="9Q2h810ez7nCe8UWZcNo-57" value="" style="shape=waypoint;sketch=0;fillStyle=solid;size=6;pointerEvents=1;points=[];fillColor=none;resizable=0;rotatable=0;perimeter=centerPerimeter;snapToPoint=1;" parent="1" vertex="1">
          <mxGeometry x="300" y="169.75" width="20" height="20" as="geometry" />
        </mxCell>
        <mxCell id="9Q2h810ez7nCe8UWZcNo-58" value="" style="shape=waypoint;sketch=0;fillStyle=solid;size=6;pointerEvents=1;points=[];fillColor=none;resizable=0;rotatable=0;perimeter=centerPerimeter;snapToPoint=1;" parent="1" vertex="1">
          <mxGeometry x="310" y="169.75" width="20" height="20" as="geometry" />
        </mxCell>
        <mxCell id="9Q2h810ez7nCe8UWZcNo-60" value="\(y_{499}&#39;\)" style="rounded=0;whiteSpace=wrap;html=1;fillColor=#ffe6cc;strokeColor=#d79b00;" parent="1" vertex="1">
          <mxGeometry x="390" y="169.75" width="30" height="20" as="geometry" />
        </mxCell>
        <mxCell id="9Q2h810ez7nCe8UWZcNo-61" value="\(y_{498}&#39;\)" style="rounded=0;whiteSpace=wrap;html=1;fillColor=#ffe6cc;strokeColor=#d79b00;" parent="1" vertex="1">
          <mxGeometry x="360" y="169.75" width="30" height="20" as="geometry" />
        </mxCell>
        <mxCell id="9Q2h810ez7nCe8UWZcNo-62" value="\(y_{497}&#39;\)" style="rounded=0;whiteSpace=wrap;html=1;fillColor=#ffe6cc;strokeColor=#d79b00;" parent="1" vertex="1">
          <mxGeometry x="330" y="169.75" width="30" height="20" as="geometry" />
        </mxCell>
        <mxCell id="9Q2h810ez7nCe8UWZcNo-63" value="" style="shape=curlyBracket;whiteSpace=wrap;html=1;rounded=1;flipH=1;labelPosition=right;verticalLabelPosition=middle;align=left;verticalAlign=middle;rotation=90;" parent="1" vertex="1">
          <mxGeometry x="140.18" y="134.81" width="20" height="149.87" as="geometry" />
        </mxCell>
        <mxCell id="9Q2h810ez7nCe8UWZcNo-64" value="" style="shape=curlyBracket;whiteSpace=wrap;html=1;rounded=1;flipH=1;labelPosition=right;verticalLabelPosition=middle;align=left;verticalAlign=middle;rotation=90;" parent="1" vertex="1">
          <mxGeometry x="314.75" y="120" width="20" height="179.5" as="geometry" />
        </mxCell>
        <mxCell id="9Q2h810ez7nCe8UWZcNo-83" value="" style="endArrow=none;html=1;rounded=0;" parent="1" edge="1">
          <mxGeometry width="50" height="50" relative="1" as="geometry">
            <mxPoint x="175" y="65" as="sourcePoint" />
            <mxPoint x="225" y="65" as="targetPoint" />
            <Array as="points">
              <mxPoint x="210" y="84" />
            </Array>
          </mxGeometry>
        </mxCell>
        <mxCell id="9Q2h810ez7nCe8UWZcNo-84" value="" style="endArrow=none;html=1;rounded=0;" parent="1" edge="1">
          <mxGeometry width="50" height="50" relative="1" as="geometry">
            <mxPoint x="205" y="65" as="sourcePoint" />
            <mxPoint x="255" y="65" as="targetPoint" />
            <Array as="points">
              <mxPoint x="240" y="84" />
            </Array>
          </mxGeometry>
        </mxCell>
        <mxCell id="9Q2h810ez7nCe8UWZcNo-85" value="" style="endArrow=none;html=1;rounded=0;" parent="1" edge="1">
          <mxGeometry width="50" height="50" relative="1" as="geometry">
            <mxPoint x="235" y="65" as="sourcePoint" />
            <mxPoint x="285" y="65" as="targetPoint" />
            <Array as="points">
              <mxPoint x="270" y="84" />
            </Array>
          </mxGeometry>
        </mxCell>
        <mxCell id="9Q2h810ez7nCe8UWZcNo-92" value="\(y_{3}&#39;\)" style="rounded=0;whiteSpace=wrap;html=1;fillColor=#d5e8d4;strokeColor=#82b366;" parent="1" vertex="1">
          <mxGeometry x="130.18" y="90" width="30" height="20" as="geometry" />
        </mxCell>
        <mxCell id="9Q2h810ez7nCe8UWZcNo-93" value="\(y_{3}\)" style="rounded=0;whiteSpace=wrap;html=1;fillColor=#dae8fc;strokeColor=#6c8ebf;" parent="1" vertex="1">
          <mxGeometry x="130.18" y="40" width="30" height="20" as="geometry" />
        </mxCell>
        <mxCell id="9Q2h810ez7nCe8UWZcNo-94" value="" style="endArrow=none;html=1;rounded=0;" parent="1" edge="1">
          <mxGeometry width="50" height="50" relative="1" as="geometry">
            <mxPoint x="104" y="65" as="sourcePoint" />
            <mxPoint x="155" y="65" as="targetPoint" />
            <Array as="points">
              <mxPoint x="140" y="85" />
            </Array>
          </mxGeometry>
        </mxCell>
        <mxCell id="9Q2h810ez7nCe8UWZcNo-95" value="&lt;font face=&quot;Roboto Mono&quot;&gt;train&lt;/font&gt;" style="text;html=1;align=left;verticalAlign=top;rounded=0;spacing=0;spacingLeft=6;" parent="1" vertex="1">
          <mxGeometry x="130.18" y="220" width="50" height="20" as="geometry" />
        </mxCell>
        <mxCell id="9Q2h810ez7nCe8UWZcNo-96" value="&lt;font face=&quot;Roboto Mono&quot;&gt;test&lt;/font&gt;" style="text;html=1;align=left;verticalAlign=top;rounded=0;spacing=0;spacingLeft=6;" parent="1" vertex="1">
          <mxGeometry x="310" y="220" width="40" height="20" as="geometry" />
        </mxCell>
        <mxCell id="9Q2h810ez7nCe8UWZcNo-97" value="&lt;font face=&quot;Roboto Mono&quot;&gt;for i in range(train_len, total_len, window):&lt;/font&gt;" style="text;html=1;align=left;verticalAlign=top;rounded=0;spacing=0;spacingLeft=6;" parent="1" vertex="1">
          <mxGeometry x="60" y="350" width="330" height="20" as="geometry" />
        </mxCell>
        <mxCell id="9Q2h810ez7nCe8UWZcNo-98" value="&lt;font face=&quot;Roboto Mono&quot;&gt;pred_MA = []&lt;/font&gt;" style="text;html=1;align=left;verticalAlign=top;rounded=0;spacing=0;spacingLeft=6;" parent="1" vertex="1">
          <mxGeometry x="60.18" y="320" width="99.82" height="20" as="geometry" />
        </mxCell>
        <mxCell id="9Q2h810ez7nCe8UWZcNo-99" value="&lt;font face=&quot;Roboto Mono&quot;&gt;449&lt;/font&gt;" style="text;html=1;align=left;verticalAlign=top;rounded=0;spacing=0;spacingLeft=6;fillColor=#d5e8d4;strokeColor=#82b366;" parent="1" vertex="1">
          <mxGeometry x="180.18" y="370" width="29.82" height="20" as="geometry" />
        </mxCell>
        <mxCell id="9Q2h810ez7nCe8UWZcNo-100" value="&lt;font face=&quot;Roboto Mono&quot;&gt;498&lt;/font&gt;" style="text;html=1;align=left;verticalAlign=top;rounded=0;spacing=0;spacingLeft=6;fillColor=#dae8fc;strokeColor=#6c8ebf;" parent="1" vertex="1">
          <mxGeometry x="260" y="370" width="30" height="20" as="geometry" />
        </mxCell>
        <mxCell id="9Q2h810ez7nCe8UWZcNo-101" value="&lt;font face=&quot;Roboto Mono&quot;&gt;2&lt;/font&gt;" style="text;html=1;align=left;verticalAlign=top;rounded=0;spacing=0;spacingLeft=6;fillColor=#f8cecc;strokeColor=#b85450;" parent="1" vertex="1">
          <mxGeometry x="335" y="370" width="30" height="20" as="geometry" />
        </mxCell>
        <mxCell id="9Q2h810ez7nCe8UWZcNo-102" value="&lt;font face=&quot;Roboto Mono&quot;&gt;i&lt;/font&gt;" style="text;html=1;align=left;verticalAlign=top;rounded=0;spacing=0;spacingLeft=6;" parent="1" vertex="1">
          <mxGeometry x="100" y="400" width="29.82" height="20" as="geometry" />
        </mxCell>
        <mxCell id="9Q2h810ez7nCe8UWZcNo-103" value="&lt;font face=&quot;Roboto Mono&quot;&gt;[449, 451, 453, 455, 457, ..., 497]&lt;/font&gt;" style="text;html=1;align=left;verticalAlign=top;rounded=0;spacing=0;spacingLeft=6;" parent="1" vertex="1">
          <mxGeometry x="129.82" y="400" width="260.18" height="20" as="geometry" />
        </mxCell>
        <mxCell id="9Q2h810ez7nCe8UWZcNo-104" value="&lt;font face=&quot;Roboto Mono&quot;&gt;model = SARIMAX(df[:i][&quot;widget_sales_diff&quot;], order=(0, 0, 2))&lt;/font&gt;" style="text;html=1;align=left;verticalAlign=top;rounded=0;spacing=0;spacingLeft=6;" parent="1" vertex="1">
          <mxGeometry x="80" y="430" width="450" height="20" as="geometry" />
        </mxCell>
        <mxCell id="9Q2h810ez7nCe8UWZcNo-105" value="&lt;font face=&quot;Roboto Mono&quot;&gt;[0, 1, 2, ..., 448]&lt;/font&gt;" style="text;html=1;align=left;verticalAlign=top;rounded=0;spacing=0;spacingLeft=6;" parent="1" vertex="1">
          <mxGeometry x="250" y="470" width="150" height="20" as="geometry" />
        </mxCell>
        <mxCell id="9Q2h810ez7nCe8UWZcNo-106" value="&lt;font face=&quot;Roboto Mono&quot;&gt;[0, 1, 2, ..., 448, 449, 450]&lt;/font&gt;" style="text;html=1;align=left;verticalAlign=top;rounded=0;spacing=0;spacingLeft=6;" parent="1" vertex="1">
          <mxGeometry x="249.75" y="490" width="220.25" height="20" as="geometry" />
        </mxCell>
        <mxCell id="9Q2h810ez7nCe8UWZcNo-107" value="&lt;font face=&quot;Roboto Mono&quot;&gt;[0, 1, 2, ..., 448, 449, 450, 451, 452]&lt;/font&gt;" style="text;html=1;align=left;verticalAlign=top;rounded=0;spacing=0;spacingLeft=6;" parent="1" vertex="1">
          <mxGeometry x="249.75" y="510" width="300.25" height="20" as="geometry" />
        </mxCell>
        <mxCell id="9Q2h810ez7nCe8UWZcNo-108" value="&lt;font face=&quot;Roboto Mono&quot;&gt;[0, 1, 2, ..., 448, 449, 450, 451, 452, ..., 495, 496]&lt;/font&gt;" style="text;html=1;align=left;verticalAlign=top;rounded=0;spacing=0;spacingLeft=6;" parent="1" vertex="1">
          <mxGeometry x="249.75" y="570" width="370.25" height="20" as="geometry" />
        </mxCell>
        <mxCell id="9Q2h810ez7nCe8UWZcNo-110" value="" style="shape=waypoint;sketch=0;fillStyle=solid;size=6;pointerEvents=1;points=[];fillColor=none;resizable=0;rotatable=0;perimeter=centerPerimeter;snapToPoint=1;" parent="1" vertex="1">
          <mxGeometry x="270" y="540" width="20" height="20" as="geometry" />
        </mxCell>
        <mxCell id="9Q2h810ez7nCe8UWZcNo-111" value="" style="shape=waypoint;sketch=0;fillStyle=solid;size=6;pointerEvents=1;points=[];fillColor=none;resizable=0;rotatable=0;perimeter=centerPerimeter;snapToPoint=1;" parent="1" vertex="1">
          <mxGeometry x="270" y="550" width="20" height="20" as="geometry" />
        </mxCell>
        <mxCell id="9Q2h810ez7nCe8UWZcNo-112" value="" style="shape=waypoint;sketch=0;fillStyle=solid;size=6;pointerEvents=1;points=[];fillColor=none;resizable=0;rotatable=0;perimeter=centerPerimeter;snapToPoint=1;" parent="1" vertex="1">
          <mxGeometry x="270" y="530" width="20" height="20" as="geometry" />
        </mxCell>
        <mxCell id="9Q2h810ez7nCe8UWZcNo-113" value="" style="endArrow=classic;html=1;rounded=0;exitX=0;exitY=0.5;exitDx=0;exitDy=0;" parent="1" source="9Q2h810ez7nCe8UWZcNo-105" edge="1">
          <mxGeometry width="50" height="50" relative="1" as="geometry">
            <mxPoint x="260" y="540" as="sourcePoint" />
            <mxPoint x="210" y="460" as="targetPoint" />
            <Array as="points">
              <mxPoint x="210" y="480" />
            </Array>
          </mxGeometry>
        </mxCell>
        <mxCell id="9Q2h810ez7nCe8UWZcNo-115" value="" style="endArrow=none;html=1;rounded=0;entryX=0;entryY=0.5;entryDx=0;entryDy=0;" parent="1" target="9Q2h810ez7nCe8UWZcNo-106" edge="1">
          <mxGeometry width="50" height="50" relative="1" as="geometry">
            <mxPoint x="210" y="480" as="sourcePoint" />
            <mxPoint x="280" y="500" as="targetPoint" />
            <Array as="points">
              <mxPoint x="210" y="500" />
            </Array>
          </mxGeometry>
        </mxCell>
        <mxCell id="9Q2h810ez7nCe8UWZcNo-116" value="" style="endArrow=none;html=1;rounded=0;entryX=0;entryY=0.5;entryDx=0;entryDy=0;" parent="1" edge="1">
          <mxGeometry width="50" height="50" relative="1" as="geometry">
            <mxPoint x="210" y="500" as="sourcePoint" />
            <mxPoint x="250" y="520" as="targetPoint" />
            <Array as="points">
              <mxPoint x="210" y="520" />
            </Array>
          </mxGeometry>
        </mxCell>
        <mxCell id="9Q2h810ez7nCe8UWZcNo-118" value="" style="endArrow=none;html=1;rounded=0;entryX=0;entryY=0.5;entryDx=0;entryDy=0;" parent="1" target="9Q2h810ez7nCe8UWZcNo-108" edge="1">
          <mxGeometry width="50" height="50" relative="1" as="geometry">
            <mxPoint x="210" y="520" as="sourcePoint" />
            <mxPoint x="250" y="540" as="targetPoint" />
            <Array as="points">
              <mxPoint x="210" y="580" />
            </Array>
          </mxGeometry>
        </mxCell>
        <mxCell id="9Q2h810ez7nCe8UWZcNo-119" value="&lt;font face=&quot;Roboto Mono&quot;&gt;res = model.fit(disp=False)&lt;/font&gt;" style="text;html=1;align=left;verticalAlign=top;rounded=0;spacing=0;spacingLeft=6;" parent="1" vertex="1">
          <mxGeometry x="80" y="600" width="210" height="20" as="geometry" />
        </mxCell>
        <mxCell id="9Q2h810ez7nCe8UWZcNo-120" value="&lt;font face=&quot;Roboto Mono&quot;&gt;predictions = res.get_prediction(0, i + window - 1)&lt;/font&gt;" style="text;html=1;align=left;verticalAlign=top;rounded=0;spacing=0;spacingLeft=6;" parent="1" vertex="1">
          <mxGeometry x="80" y="630" width="380" height="20" as="geometry" />
        </mxCell>
        <mxCell id="9Q2h810ez7nCe8UWZcNo-123" value="&lt;font face=&quot;Roboto Mono&quot;&gt;i + window - 1 =&amp;nbsp;&lt;/font&gt;" style="text;html=1;align=right;verticalAlign=top;rounded=0;spacing=0;spacingLeft=6;" parent="1" vertex="1">
          <mxGeometry x="440" y="720" width="127" height="20" as="geometry" />
        </mxCell>
        <mxCell id="9Q2h810ez7nCe8UWZcNo-124" value="&lt;font face=&quot;Roboto Mono&quot;&gt;[451, 453, 455, 457, 459, ..., 499]&lt;/font&gt;" style="text;html=1;align=left;verticalAlign=top;rounded=0;spacing=0;spacingLeft=6;" parent="1" vertex="1">
          <mxGeometry x="566.8199999999999" y="720" width="260.18" height="20" as="geometry" />
        </mxCell>
        <mxCell id="9Q2h810ez7nCe8UWZcNo-125" value="&lt;font face=&quot;Roboto Mono&quot;&gt;i =&amp;nbsp;&lt;/font&gt;" style="text;html=1;align=right;verticalAlign=top;rounded=0;spacing=0;spacingLeft=6;" parent="1" vertex="1">
          <mxGeometry x="537.1800000000001" y="690" width="29.82" height="20" as="geometry" />
        </mxCell>
        <mxCell id="9Q2h810ez7nCe8UWZcNo-126" value="&lt;font face=&quot;Roboto Mono&quot;&gt;[449, 451, 453, 455, 457, ..., 497]&lt;/font&gt;" style="text;html=1;align=left;verticalAlign=top;rounded=0;spacing=0;spacingLeft=6;" parent="1" vertex="1">
          <mxGeometry x="566.8199999999999" y="690" width="260.18" height="20" as="geometry" />
        </mxCell>
        <mxCell id="9Q2h810ez7nCe8UWZcNo-127" value="&lt;font face=&quot;Roboto Mono&quot;&gt;window = 2&lt;/font&gt;" style="text;html=1;align=left;verticalAlign=top;rounded=0;spacing=0;spacingLeft=6;fillColor=#f8cecc;strokeColor=#b85450;" parent="1" vertex="1">
          <mxGeometry x="457" y="660" width="99.82" height="20" as="geometry" />
        </mxCell>
        <mxCell id="Jhm0tjj5Ij8ys8209GZf-1" value="" style="endArrow=block;html=1;rounded=0;endFill=1;entryX=1;entryY=0;entryDx=0;entryDy=0;curved=1;" parent="1" target="9Q2h810ez7nCe8UWZcNo-1" edge="1">
          <mxGeometry width="50" height="50" relative="1" as="geometry">
            <mxPoint x="250" y="270" as="sourcePoint" />
            <mxPoint x="410" y="260" as="targetPoint" />
            <Array as="points">
              <mxPoint x="200" y="260" />
            </Array>
          </mxGeometry>
        </mxCell>
        <mxCell id="Jhm0tjj5Ij8ys8209GZf-4" value="&lt;font face=&quot;Roboto Mono&quot;&gt;df_widget_diff&lt;/font&gt;" style="text;html=1;align=left;verticalAlign=top;rounded=0;spacing=0;spacingLeft=6;" parent="1" vertex="1">
          <mxGeometry x="255" y="260" width="110" height="20" as="geometry" />
        </mxCell>
        <mxCell id="Jhm0tjj5Ij8ys8209GZf-5" value="&lt;font face=&quot;Roboto Mono&quot;&gt;499 rows (indices: 0-th to 498-th)&lt;/font&gt;" style="text;html=1;align=left;verticalAlign=top;rounded=0;spacing=0;spacingLeft=6;" parent="1" vertex="1">
          <mxGeometry x="379.88" y="260" width="260.12" height="20" as="geometry" />
        </mxCell>
        <mxCell id="W89thywhKlXl5NZcDlXg-1" value="&lt;font face=&quot;Roboto Mono&quot;&gt;SARIMAXResults.get_prediction(&lt;/font&gt;&lt;div&gt;&lt;font face=&quot;Roboto Mono&quot;&gt;&amp;nbsp; start=None,&amp;nbsp;&lt;/font&gt;&lt;/div&gt;&lt;div&gt;&lt;font face=&quot;Roboto Mono&quot;&gt;&amp;nbsp; end=None,&amp;nbsp;&lt;/font&gt;&lt;/div&gt;&lt;div&gt;&lt;font face=&quot;Roboto Mono&quot;&gt;&amp;nbsp; dynamic=False,&amp;nbsp;&lt;/font&gt;&lt;/div&gt;&lt;div&gt;&lt;font face=&quot;Roboto Mono&quot;&gt;&amp;nbsp; information_set=&#39;predicted&#39;,&amp;nbsp;&lt;/font&gt;&lt;/div&gt;&lt;div&gt;&lt;font face=&quot;Roboto Mono&quot;&gt;&amp;nbsp; signal_only=False,&amp;nbsp;&lt;/font&gt;&lt;/div&gt;&lt;div&gt;&lt;font face=&quot;Roboto Mono&quot;&gt;&amp;nbsp; index=None,&amp;nbsp;&lt;/font&gt;&lt;/div&gt;&lt;div&gt;&lt;font face=&quot;Roboto Mono&quot;&gt;&amp;nbsp; exog=None,&amp;nbsp;&lt;/font&gt;&lt;/div&gt;&lt;div&gt;&lt;font face=&quot;Roboto Mono&quot;&gt;&amp;nbsp; extend_model=None,&amp;nbsp;&lt;/font&gt;&lt;/div&gt;&lt;div&gt;&lt;font face=&quot;Roboto Mono&quot;&gt;&amp;nbsp; extend_kwargs=None, **kwargs)&lt;/font&gt;&lt;br&gt;&lt;/div&gt;" style="text;html=1;align=left;verticalAlign=top;rounded=0;spacing=0;spacingLeft=6;" parent="1" vertex="1">
          <mxGeometry x="-269.82" y="640" width="240" height="160" as="geometry" />
        </mxCell>
        <mxCell id="W89thywhKlXl5NZcDlXg-2" value="" style="endArrow=block;html=1;rounded=0;endFill=1;entryX=0.5;entryY=0;entryDx=0;entryDy=0;curved=1;" parent="1" target="9Q2h810ez7nCe8UWZcNo-126" edge="1">
          <mxGeometry width="50" height="50" relative="1" as="geometry">
            <mxPoint x="400" y="410" as="sourcePoint" />
            <mxPoint x="644.9100000000001" y="395" as="targetPoint" />
            <Array as="points">
              <mxPoint x="664.9100000000001" y="365" />
            </Array>
          </mxGeometry>
        </mxCell>
        <mxCell id="W89thywhKlXl5NZcDlXg-4" value="&lt;font face=&quot;Roboto Mono&quot;&gt;[0, 450]&lt;/font&gt;" style="text;html=1;align=left;verticalAlign=top;rounded=0;spacing=0;spacingLeft=6;" parent="1" vertex="1">
          <mxGeometry x="99.88" y="830" width="80.12" height="20" as="geometry" />
        </mxCell>
        <mxCell id="W89thywhKlXl5NZcDlXg-7" value="&lt;font face=&quot;Roboto Mono&quot;&gt;[0, 452]&lt;/font&gt;" style="text;html=1;align=left;verticalAlign=top;rounded=0;spacing=0;spacingLeft=6;" parent="1" vertex="1">
          <mxGeometry x="99.88" y="850" width="80.12" height="20" as="geometry" />
        </mxCell>
        <mxCell id="W89thywhKlXl5NZcDlXg-8" value="&lt;font face=&quot;Roboto Mono&quot;&gt;[0, 454]&lt;/font&gt;" style="text;html=1;align=left;verticalAlign=top;rounded=0;spacing=0;spacingLeft=6;" parent="1" vertex="1">
          <mxGeometry x="99.88" y="870" width="80.12" height="20" as="geometry" />
        </mxCell>
        <mxCell id="W89thywhKlXl5NZcDlXg-9" value="&lt;font face=&quot;Roboto Mono&quot;&gt;[0, 499]&lt;/font&gt;" style="text;html=1;align=left;verticalAlign=top;rounded=0;spacing=0;spacingLeft=6;" parent="1" vertex="1">
          <mxGeometry x="99.88" y="930" width="80.12" height="20" as="geometry" />
        </mxCell>
        <mxCell id="W89thywhKlXl5NZcDlXg-10" value="&lt;font face=&quot;Roboto Mono&quot;&gt;in-sample prediction and&lt;/font&gt;&lt;div&gt;&lt;font face=&quot;Roboto Mono&quot;&gt;out-of sample forecasting&lt;/font&gt;&lt;/div&gt;" style="text;html=1;align=left;verticalAlign=top;rounded=0;spacing=0;spacingLeft=6;" parent="1" vertex="1">
          <mxGeometry x="-290" y="600" width="210" height="40" as="geometry" />
        </mxCell>
        <mxCell id="cygAK_lSfxoB2_aoQv2--1" value="&lt;font face=&quot;Roboto Mono&quot;&gt;[0, 1, 2, ..., 448]&lt;/font&gt;" style="text;html=1;align=left;verticalAlign=top;rounded=0;spacing=0;spacingLeft=6;" vertex="1" parent="1">
          <mxGeometry x="210.13" y="830" width="150" height="20" as="geometry" />
        </mxCell>
        <mxCell id="cygAK_lSfxoB2_aoQv2--2" value="&lt;font face=&quot;Roboto Mono&quot;&gt;[0, 1, 2, ..., 448, 449, 450]&lt;/font&gt;" style="text;html=1;align=left;verticalAlign=top;rounded=0;spacing=0;spacingLeft=6;" vertex="1" parent="1">
          <mxGeometry x="209.88" y="850" width="220.25" height="20" as="geometry" />
        </mxCell>
        <mxCell id="cygAK_lSfxoB2_aoQv2--3" value="&lt;font face=&quot;Roboto Mono&quot;&gt;[0, 1, 2, ..., 448, 449, 450, 451, 452]&lt;/font&gt;" style="text;html=1;align=left;verticalAlign=top;rounded=0;spacing=0;spacingLeft=6;" vertex="1" parent="1">
          <mxGeometry x="209.88" y="870" width="300.25" height="20" as="geometry" />
        </mxCell>
        <mxCell id="cygAK_lSfxoB2_aoQv2--4" value="&lt;font face=&quot;Roboto Mono&quot;&gt;[0, 1, 2, ..., 448, 449, 450, 451, 452, ..., 495, 496]&lt;/font&gt;" style="text;html=1;align=left;verticalAlign=top;rounded=0;spacing=0;spacingLeft=6;" vertex="1" parent="1">
          <mxGeometry x="209.88" y="930" width="370.25" height="20" as="geometry" />
        </mxCell>
        <mxCell id="cygAK_lSfxoB2_aoQv2--9" value="&lt;font face=&quot;Roboto Mono&quot;&gt;oos_pred = predictions.predicted_mean.iloc[-window:]&lt;/font&gt;" style="text;html=1;align=left;verticalAlign=top;rounded=0;spacing=0;spacingLeft=6;" vertex="1" parent="1">
          <mxGeometry x="79.88" y="980" width="380" height="20" as="geometry" />
        </mxCell>
        <mxCell id="cygAK_lSfxoB2_aoQv2--10" value="" style="shape=curlyBracket;whiteSpace=wrap;html=1;rounded=1;flipH=1;labelPosition=right;verticalLabelPosition=middle;align=left;verticalAlign=middle;rotation=90;" vertex="1" parent="1">
          <mxGeometry x="375" y="605" width="20" height="130" as="geometry" />
        </mxCell>
        <mxCell id="cygAK_lSfxoB2_aoQv2--11" value="&lt;font face=&quot;Roboto Mono&quot;&gt;(endpoint excluded)&amp;nbsp;&lt;/font&gt;" style="text;html=1;align=right;verticalAlign=top;rounded=0;spacing=0;spacingLeft=6;" vertex="1" parent="1">
          <mxGeometry x="440" y="750" width="127" height="20" as="geometry" />
        </mxCell>
        <mxCell id="cygAK_lSfxoB2_aoQv2--12" value="&lt;font face=&quot;Roboto Mono&quot;&gt;[450, 452, 454, 456, 458, ..., 498]&lt;/font&gt;" style="text;html=1;align=left;verticalAlign=top;rounded=0;spacing=0;spacingLeft=6;" vertex="1" parent="1">
          <mxGeometry x="566.8199999999999" y="750" width="260.18" height="20" as="geometry" />
        </mxCell>
        <mxCell id="cygAK_lSfxoB2_aoQv2--13" value="&lt;span style=&quot;color: rgb(0, 0, 0); font-family: &amp;quot;Roboto Mono&amp;quot;; font-size: 12px; font-style: normal; font-variant-ligatures: normal; font-variant-caps: normal; font-weight: 400; letter-spacing: normal; orphans: 2; text-align: left; text-indent: 0px; text-transform: none; widows: 2; word-spacing: 0px; -webkit-text-stroke-width: 0px; white-space: nowrap; background-color: rgb(251, 251, 251); text-decoration-thickness: initial; text-decoration-style: initial; text-decoration-color: initial; display: inline !important; float: none;&quot;&gt;df[:i]&lt;/span&gt;" style="text;whiteSpace=wrap;html=1;" vertex="1" parent="1">
          <mxGeometry x="214.88" y="810" width="60" height="20" as="geometry" />
        </mxCell>
        <mxCell id="cygAK_lSfxoB2_aoQv2--15" value="" style="endArrow=block;html=1;rounded=0;entryX=0.402;entryY=0;entryDx=0;entryDy=0;entryPerimeter=0;exitX=0.1;exitY=0.5;exitDx=0;exitDy=0;exitPerimeter=0;endFill=1;curved=1;" edge="1" parent="1" source="cygAK_lSfxoB2_aoQv2--10" target="W89thywhKlXl5NZcDlXg-4">
          <mxGeometry width="50" height="50" relative="1" as="geometry">
            <mxPoint x="320" y="690" as="sourcePoint" />
            <mxPoint x="350" y="770" as="targetPoint" />
            <Array as="points">
              <mxPoint x="170" y="720" />
            </Array>
          </mxGeometry>
        </mxCell>
        <mxCell id="cygAK_lSfxoB2_aoQv2--16" value="" style="endArrow=block;html=1;rounded=0;endFill=1;curved=1;" edge="1" parent="1">
          <mxGeometry width="50" height="50" relative="1" as="geometry">
            <mxPoint x="410" y="760" as="sourcePoint" />
            <mxPoint x="160" y="820" as="targetPoint" />
            <Array as="points">
              <mxPoint x="180" y="730" />
            </Array>
          </mxGeometry>
        </mxCell>
        <mxCell id="cygAK_lSfxoB2_aoQv2--31" value="\(y_{1}&#39;\)" style="rounded=0;whiteSpace=wrap;html=1;fillColor=#d5e8d4;strokeColor=#82b366;" vertex="1" parent="1">
          <mxGeometry x="120" y="1040" width="30" height="20" as="geometry" />
        </mxCell>
        <mxCell id="cygAK_lSfxoB2_aoQv2--32" value="\(y_{2}&#39;\)" style="rounded=0;whiteSpace=wrap;html=1;fillColor=#d5e8d4;strokeColor=#82b366;" vertex="1" parent="1">
          <mxGeometry x="150" y="1040" width="30" height="20" as="geometry" />
        </mxCell>
        <mxCell id="cygAK_lSfxoB2_aoQv2--33" value="" style="shape=waypoint;sketch=0;fillStyle=solid;size=6;pointerEvents=1;points=[];fillColor=none;resizable=0;rotatable=0;perimeter=centerPerimeter;snapToPoint=1;" vertex="1" parent="1">
          <mxGeometry x="210" y="1040" width="20" height="20" as="geometry" />
        </mxCell>
        <mxCell id="cygAK_lSfxoB2_aoQv2--34" value="" style="shape=waypoint;sketch=0;fillStyle=solid;size=6;pointerEvents=1;points=[];fillColor=none;resizable=0;rotatable=0;perimeter=centerPerimeter;snapToPoint=1;" vertex="1" parent="1">
          <mxGeometry x="220" y="1040" width="20" height="20" as="geometry" />
        </mxCell>
        <mxCell id="cygAK_lSfxoB2_aoQv2--35" value="" style="shape=waypoint;sketch=0;fillStyle=solid;size=6;pointerEvents=1;points=[];fillColor=none;resizable=0;rotatable=0;perimeter=centerPerimeter;snapToPoint=1;" vertex="1" parent="1">
          <mxGeometry x="230" y="1040" width="20" height="20" as="geometry" />
        </mxCell>
        <mxCell id="cygAK_lSfxoB2_aoQv2--36" value="\(y_{3}&#39;\)" style="rounded=0;whiteSpace=wrap;html=1;fillColor=#d5e8d4;strokeColor=#82b366;" vertex="1" parent="1">
          <mxGeometry x="180" y="1040" width="30" height="20" as="geometry" />
        </mxCell>
        <mxCell id="cygAK_lSfxoB2_aoQv2--37" value="\(y_{449}&#39;\)" style="rounded=0;whiteSpace=wrap;html=1;fillColor=#d5e8d4;strokeColor=#82b366;" vertex="1" parent="1">
          <mxGeometry x="285.07" y="1040" width="30" height="20" as="geometry" />
        </mxCell>
        <mxCell id="cygAK_lSfxoB2_aoQv2--38" value="\(y_{450}&#39;\)" style="rounded=0;whiteSpace=wrap;html=1;fillColor=#ffe6cc;strokeColor=#d79b00;" vertex="1" parent="1">
          <mxGeometry x="315.07" y="1040" width="30" height="20" as="geometry" />
        </mxCell>
        <mxCell id="cygAK_lSfxoB2_aoQv2--39" value="\(y_{451}&#39;\)" style="rounded=0;whiteSpace=wrap;html=1;fillColor=#ffe6cc;strokeColor=#d79b00;" vertex="1" parent="1">
          <mxGeometry x="345.07" y="1040" width="30" height="20" as="geometry" />
        </mxCell>
        <mxCell id="cygAK_lSfxoB2_aoQv2--43" value="\(y_{499}&#39;\)" style="rounded=0;whiteSpace=wrap;html=1;fillColor=#ffe6cc;strokeColor=#d79b00;" vertex="1" parent="1">
          <mxGeometry x="700.87" y="1040" width="30" height="20" as="geometry" />
        </mxCell>
        <mxCell id="cygAK_lSfxoB2_aoQv2--44" value="\(y_{498}&#39;\)" style="rounded=0;whiteSpace=wrap;html=1;fillColor=#ffe6cc;strokeColor=#d79b00;" vertex="1" parent="1">
          <mxGeometry x="670.87" y="1040" width="30" height="20" as="geometry" />
        </mxCell>
        <mxCell id="cygAK_lSfxoB2_aoQv2--45" value="\(y_{497}&#39;\)" style="rounded=0;whiteSpace=wrap;html=1;fillColor=#ffe6cc;strokeColor=#d79b00;" vertex="1" parent="1">
          <mxGeometry x="640.87" y="1040" width="30" height="20" as="geometry" />
        </mxCell>
        <mxCell id="cygAK_lSfxoB2_aoQv2--61" value="&lt;font face=&quot;Roboto Mono&quot;&gt;zero-th based index&lt;/font&gt;" style="text;html=1;align=right;verticalAlign=top;rounded=0;spacing=0;spacingLeft=6;" vertex="1" parent="1">
          <mxGeometry x="40" y="1020" width="69.64" height="20" as="geometry" />
        </mxCell>
        <mxCell id="cygAK_lSfxoB2_aoQv2--64" value="&lt;font face=&quot;Roboto Mono&quot;&gt;0&lt;/font&gt;" style="text;html=1;align=center;verticalAlign=top;rounded=0;spacing=0;spacingLeft=0;" vertex="1" parent="1">
          <mxGeometry x="120" y="1020" width="30.12" height="20" as="geometry" />
        </mxCell>
        <mxCell id="cygAK_lSfxoB2_aoQv2--65" value="&lt;font face=&quot;Roboto Mono&quot;&gt;1&lt;/font&gt;" style="text;html=1;align=center;verticalAlign=top;rounded=0;spacing=0;spacingLeft=0;" vertex="1" parent="1">
          <mxGeometry x="149.88" y="1020" width="30.12" height="20" as="geometry" />
        </mxCell>
        <mxCell id="cygAK_lSfxoB2_aoQv2--66" value="&lt;font face=&quot;Roboto Mono&quot;&gt;2&lt;/font&gt;" style="text;html=1;align=center;verticalAlign=top;rounded=0;spacing=0;spacingLeft=0;" vertex="1" parent="1">
          <mxGeometry x="179.76" y="1020" width="30.12" height="20" as="geometry" />
        </mxCell>
        <mxCell id="cygAK_lSfxoB2_aoQv2--67" value="&lt;font face=&quot;Roboto Mono&quot;&gt;448&lt;/font&gt;" style="text;html=1;align=center;verticalAlign=top;rounded=0;spacing=0;spacingLeft=0;" vertex="1" parent="1">
          <mxGeometry x="284.82" y="1020" width="30.12" height="20" as="geometry" />
        </mxCell>
        <mxCell id="cygAK_lSfxoB2_aoQv2--68" value="&lt;font face=&quot;Roboto Mono&quot;&gt;449&lt;/font&gt;" style="text;html=1;align=center;verticalAlign=top;rounded=0;spacing=0;spacingLeft=0;" vertex="1" parent="1">
          <mxGeometry x="315.01" y="1020" width="30.12" height="20" as="geometry" />
        </mxCell>
        <mxCell id="cygAK_lSfxoB2_aoQv2--69" value="&lt;font face=&quot;Roboto Mono&quot;&gt;450&lt;/font&gt;" style="text;html=1;align=center;verticalAlign=top;rounded=0;spacing=0;spacingLeft=0;" vertex="1" parent="1">
          <mxGeometry x="345.13" y="1020" width="30.12" height="20" as="geometry" />
        </mxCell>
        <mxCell id="cygAK_lSfxoB2_aoQv2--70" value="&lt;font face=&quot;Roboto Mono&quot;&gt;496&lt;/font&gt;" style="text;html=1;align=center;verticalAlign=top;rounded=0;spacing=0;spacingLeft=0;" vertex="1" parent="1">
          <mxGeometry x="640.75" y="1020" width="30.12" height="20" as="geometry" />
        </mxCell>
        <mxCell id="cygAK_lSfxoB2_aoQv2--71" value="&lt;font face=&quot;Roboto Mono&quot;&gt;497&lt;/font&gt;" style="text;html=1;align=center;verticalAlign=top;rounded=0;spacing=0;spacingLeft=0;" vertex="1" parent="1">
          <mxGeometry x="670.75" y="1020" width="30.12" height="20" as="geometry" />
        </mxCell>
        <mxCell id="cygAK_lSfxoB2_aoQv2--72" value="&lt;font face=&quot;Roboto Mono&quot;&gt;498&lt;/font&gt;" style="text;html=1;align=center;verticalAlign=top;rounded=0;spacing=0;spacingLeft=0;" vertex="1" parent="1">
          <mxGeometry x="700.87" y="1020" width="30.12" height="20" as="geometry" />
        </mxCell>
        <mxCell id="cygAK_lSfxoB2_aoQv2--73" value="\(y_{448}&#39;\)" style="rounded=0;whiteSpace=wrap;html=1;fillColor=#d5e8d4;strokeColor=#82b366;" vertex="1" parent="1">
          <mxGeometry x="254.82" y="1040" width="30" height="20" as="geometry" />
        </mxCell>
        <mxCell id="cygAK_lSfxoB2_aoQv2--74" value="&lt;font face=&quot;Roboto Mono&quot;&gt;447&lt;/font&gt;" style="text;html=1;align=center;verticalAlign=top;rounded=0;spacing=0;spacingLeft=0;" vertex="1" parent="1">
          <mxGeometry x="254.57" y="1020" width="30.12" height="20" as="geometry" />
        </mxCell>
        <mxCell id="cygAK_lSfxoB2_aoQv2--75" value="" style="endArrow=block;html=1;rounded=0;entryX=0.415;entryY=0.98;entryDx=0;entryDy=0;entryPerimeter=0;endFill=1;curved=1;exitX=1;exitY=0;exitDx=0;exitDy=0;" edge="1" parent="1" source="W89thywhKlXl5NZcDlXg-1" target="9Q2h810ez7nCe8UWZcNo-120">
          <mxGeometry width="50" height="50" relative="1" as="geometry">
            <mxPoint x="395" y="688" as="sourcePoint" />
            <mxPoint x="150" y="840" as="targetPoint" />
            <Array as="points">
              <mxPoint x="10" y="640" />
              <mxPoint x="180" y="730" />
            </Array>
          </mxGeometry>
        </mxCell>
        <mxCell id="cygAK_lSfxoB2_aoQv2--76" value="" style="endArrow=block;html=1;rounded=0;endFill=1;curved=1;" edge="1" parent="1">
          <mxGeometry width="50" height="50" relative="1" as="geometry">
            <mxPoint x="90" y="410" as="sourcePoint" />
            <mxPoint x="60" y="1125.274658203125" as="targetPoint" />
            <Array as="points">
              <mxPoint x="20" y="430" />
              <mxPoint x="20" y="650" />
              <mxPoint x="-10" y="820" />
              <mxPoint x="-110" y="1050" />
            </Array>
          </mxGeometry>
        </mxCell>
        <mxCell id="cygAK_lSfxoB2_aoQv2--78" value="&lt;font face=&quot;Roboto Mono&quot;&gt;i = [449, 451, 453, 455, 457, ..., 497]&lt;/font&gt;" style="text;html=1;align=left;verticalAlign=top;rounded=0;spacing=0;spacingLeft=6;" vertex="1" parent="1">
          <mxGeometry x="-140.18" y="1140" width="260.18" height="20" as="geometry" />
        </mxCell>
        <mxCell id="cygAK_lSfxoB2_aoQv2--79" value="&lt;font face=&quot;Roboto Mono&quot;&gt;i = 449&lt;/font&gt;" style="text;html=1;align=right;verticalAlign=top;rounded=0;spacing=0;spacingLeft=6;" vertex="1" parent="1">
          <mxGeometry x="170" y="1100" width="69.64" height="20" as="geometry" />
        </mxCell>
        <mxCell id="cygAK_lSfxoB2_aoQv2--80" value="\(y_{449}&#39;\)" style="rounded=0;whiteSpace=wrap;html=1;fillColor=#d5e8d4;strokeColor=#82b366;" vertex="1" parent="1">
          <mxGeometry x="285.5" y="1100" width="30" height="20" as="geometry" />
        </mxCell>
        <mxCell id="cygAK_lSfxoB2_aoQv2--81" value="\(y_{450}&#39;\)" style="rounded=0;whiteSpace=wrap;html=1;fillColor=#f8cecc;strokeColor=#b85450;" vertex="1" parent="1">
          <mxGeometry x="315.5" y="1100" width="30" height="20" as="geometry" />
        </mxCell>
        <mxCell id="cygAK_lSfxoB2_aoQv2--82" value="\(y_{451}&#39;\)" style="rounded=0;whiteSpace=wrap;html=1;fillColor=#f8cecc;strokeColor=#b85450;" vertex="1" parent="1">
          <mxGeometry x="345.5" y="1100" width="30" height="20" as="geometry" />
        </mxCell>
        <mxCell id="cygAK_lSfxoB2_aoQv2--83" value="&lt;font face=&quot;Roboto Mono&quot;&gt;448&lt;/font&gt;" style="text;html=1;align=center;verticalAlign=top;rounded=0;spacing=0;spacingLeft=0;" vertex="1" parent="1">
          <mxGeometry x="285.25" y="1080" width="30.12" height="20" as="geometry" />
        </mxCell>
        <mxCell id="cygAK_lSfxoB2_aoQv2--84" value="&lt;font face=&quot;Roboto Mono&quot;&gt;449&lt;/font&gt;" style="text;html=1;align=center;verticalAlign=top;rounded=0;spacing=0;spacingLeft=0;" vertex="1" parent="1">
          <mxGeometry x="315.44" y="1080" width="30.12" height="20" as="geometry" />
        </mxCell>
        <mxCell id="cygAK_lSfxoB2_aoQv2--85" value="&lt;font face=&quot;Roboto Mono&quot;&gt;450&lt;/font&gt;" style="text;html=1;align=center;verticalAlign=top;rounded=0;spacing=0;spacingLeft=0;" vertex="1" parent="1">
          <mxGeometry x="345.56" y="1080" width="30.12" height="20" as="geometry" />
        </mxCell>
        <mxCell id="cygAK_lSfxoB2_aoQv2--86" value="\(y_{448}&#39;\)" style="rounded=0;whiteSpace=wrap;html=1;fillColor=#d5e8d4;strokeColor=#82b366;" vertex="1" parent="1">
          <mxGeometry x="255.25" y="1100" width="30" height="20" as="geometry" />
        </mxCell>
        <mxCell id="cygAK_lSfxoB2_aoQv2--87" value="&lt;font face=&quot;Roboto Mono&quot;&gt;447&lt;/font&gt;" style="text;html=1;align=center;verticalAlign=top;rounded=0;spacing=0;spacingLeft=0;" vertex="1" parent="1">
          <mxGeometry x="255" y="1080" width="30.12" height="20" as="geometry" />
        </mxCell>
        <mxCell id="cygAK_lSfxoB2_aoQv2--88" value="&lt;font face=&quot;Roboto Mono&quot;&gt;i = 451&lt;/font&gt;" style="text;html=1;align=right;verticalAlign=top;rounded=0;spacing=0;spacingLeft=6;" vertex="1" parent="1">
          <mxGeometry x="170.36" y="1149" width="69.64" height="20" as="geometry" />
        </mxCell>
        <mxCell id="cygAK_lSfxoB2_aoQv2--89" value="\(y_{452}&#39;\)" style="rounded=0;whiteSpace=wrap;html=1;fillColor=#d5e8d4;strokeColor=#82b366;" vertex="1" parent="1">
          <mxGeometry x="346" y="1149" width="30" height="20" as="geometry" />
        </mxCell>
        <mxCell id="cygAK_lSfxoB2_aoQv2--90" value="\(y_{452}&#39;\)" style="rounded=0;whiteSpace=wrap;html=1;fillColor=#f8cecc;strokeColor=#b85450;" vertex="1" parent="1">
          <mxGeometry x="376" y="1149" width="30" height="20" as="geometry" />
        </mxCell>
        <mxCell id="cygAK_lSfxoB2_aoQv2--91" value="\(y_{453}&#39;\)" style="rounded=0;whiteSpace=wrap;html=1;fillColor=#f8cecc;strokeColor=#b85450;" vertex="1" parent="1">
          <mxGeometry x="406" y="1149" width="30" height="20" as="geometry" />
        </mxCell>
        <mxCell id="cygAK_lSfxoB2_aoQv2--92" value="&lt;font face=&quot;Roboto Mono&quot;&gt;450&lt;/font&gt;" style="text;html=1;align=center;verticalAlign=top;rounded=0;spacing=0;spacingLeft=0;" vertex="1" parent="1">
          <mxGeometry x="345.75" y="1129" width="30.12" height="20" as="geometry" />
        </mxCell>
        <mxCell id="cygAK_lSfxoB2_aoQv2--93" value="&lt;font face=&quot;Roboto Mono&quot;&gt;451&lt;/font&gt;" style="text;html=1;align=center;verticalAlign=top;rounded=0;spacing=0;spacingLeft=0;" vertex="1" parent="1">
          <mxGeometry x="375.94" y="1129" width="30.12" height="20" as="geometry" />
        </mxCell>
        <mxCell id="cygAK_lSfxoB2_aoQv2--94" value="&lt;font face=&quot;Roboto Mono&quot;&gt;452&lt;/font&gt;" style="text;html=1;align=center;verticalAlign=top;rounded=0;spacing=0;spacingLeft=0;" vertex="1" parent="1">
          <mxGeometry x="406.06" y="1129" width="30.12" height="20" as="geometry" />
        </mxCell>
        <mxCell id="cygAK_lSfxoB2_aoQv2--95" value="\(y_{450}&#39;\)" style="rounded=0;whiteSpace=wrap;html=1;fillColor=#d5e8d4;strokeColor=#82b366;" vertex="1" parent="1">
          <mxGeometry x="316" y="1149" width="30" height="20" as="geometry" />
        </mxCell>
        <mxCell id="cygAK_lSfxoB2_aoQv2--96" value="&lt;font face=&quot;Roboto Mono&quot;&gt;449&lt;/font&gt;" style="text;html=1;align=center;verticalAlign=top;rounded=0;spacing=0;spacingLeft=0;" vertex="1" parent="1">
          <mxGeometry x="315.5" y="1129" width="30.12" height="20" as="geometry" />
        </mxCell>
        <mxCell id="cygAK_lSfxoB2_aoQv2--97" value="&lt;font face=&quot;Roboto Mono&quot;&gt;i = 453&lt;/font&gt;" style="text;html=1;align=right;verticalAlign=top;rounded=0;spacing=0;spacingLeft=6;" vertex="1" parent="1">
          <mxGeometry x="170.36" y="1200" width="69.64" height="20" as="geometry" />
        </mxCell>
        <mxCell id="cygAK_lSfxoB2_aoQv2--98" value="\(y_{453}&#39;\)" style="rounded=0;whiteSpace=wrap;html=1;fillColor=#d5e8d4;strokeColor=#82b366;" vertex="1" parent="1">
          <mxGeometry x="405.77" y="1200" width="30" height="20" as="geometry" />
        </mxCell>
        <mxCell id="cygAK_lSfxoB2_aoQv2--99" value="\(y_{454}&#39;\)" style="rounded=0;whiteSpace=wrap;html=1;fillColor=#f8cecc;strokeColor=#b85450;" vertex="1" parent="1">
          <mxGeometry x="435.77" y="1200" width="30" height="20" as="geometry" />
        </mxCell>
        <mxCell id="cygAK_lSfxoB2_aoQv2--100" value="\(y_{455}&#39;\)" style="rounded=0;whiteSpace=wrap;html=1;fillColor=#f8cecc;strokeColor=#b85450;" vertex="1" parent="1">
          <mxGeometry x="465.77" y="1200" width="30" height="20" as="geometry" />
        </mxCell>
        <mxCell id="cygAK_lSfxoB2_aoQv2--101" value="&lt;font face=&quot;Roboto Mono&quot;&gt;452&lt;/font&gt;" style="text;html=1;align=center;verticalAlign=top;rounded=0;spacing=0;spacingLeft=0;" vertex="1" parent="1">
          <mxGeometry x="405.52" y="1180" width="30.12" height="20" as="geometry" />
        </mxCell>
        <mxCell id="cygAK_lSfxoB2_aoQv2--102" value="&lt;font face=&quot;Roboto Mono&quot;&gt;453&lt;/font&gt;" style="text;html=1;align=center;verticalAlign=top;rounded=0;spacing=0;spacingLeft=0;" vertex="1" parent="1">
          <mxGeometry x="435.71" y="1180" width="30.12" height="20" as="geometry" />
        </mxCell>
        <mxCell id="cygAK_lSfxoB2_aoQv2--103" value="&lt;font face=&quot;Roboto Mono&quot;&gt;454&lt;/font&gt;" style="text;html=1;align=center;verticalAlign=top;rounded=0;spacing=0;spacingLeft=0;" vertex="1" parent="1">
          <mxGeometry x="465.83" y="1180" width="30.12" height="20" as="geometry" />
        </mxCell>
        <mxCell id="cygAK_lSfxoB2_aoQv2--104" value="\(y_{452}&#39;\)" style="rounded=0;whiteSpace=wrap;html=1;fillColor=#d5e8d4;strokeColor=#82b366;" vertex="1" parent="1">
          <mxGeometry x="375.68" y="1200" width="30" height="20" as="geometry" />
        </mxCell>
        <mxCell id="cygAK_lSfxoB2_aoQv2--105" value="&lt;font face=&quot;Roboto Mono&quot;&gt;451&lt;/font&gt;" style="text;html=1;align=center;verticalAlign=top;rounded=0;spacing=0;spacingLeft=0;" vertex="1" parent="1">
          <mxGeometry x="375.27" y="1180" width="30.12" height="20" as="geometry" />
        </mxCell>
        <mxCell id="cygAK_lSfxoB2_aoQv2--111" value="\(y_{452}&#39;\)" style="rounded=0;whiteSpace=wrap;html=1;fillColor=#ffe6cc;strokeColor=#d79b00;" vertex="1" parent="1">
          <mxGeometry x="375.33" y="1040" width="30" height="20" as="geometry" />
        </mxCell>
        <mxCell id="cygAK_lSfxoB2_aoQv2--112" value="\(y_{453}&#39;\)" style="rounded=0;whiteSpace=wrap;html=1;fillColor=#ffe6cc;strokeColor=#d79b00;" vertex="1" parent="1">
          <mxGeometry x="405.33" y="1040" width="30" height="20" as="geometry" />
        </mxCell>
        <mxCell id="cygAK_lSfxoB2_aoQv2--113" value="&lt;font face=&quot;Roboto Mono&quot;&gt;451&lt;/font&gt;" style="text;html=1;align=center;verticalAlign=top;rounded=0;spacing=0;spacingLeft=0;" vertex="1" parent="1">
          <mxGeometry x="375.27" y="1020" width="30.12" height="20" as="geometry" />
        </mxCell>
        <mxCell id="cygAK_lSfxoB2_aoQv2--114" value="&lt;font face=&quot;Roboto Mono&quot;&gt;452&lt;/font&gt;" style="text;html=1;align=center;verticalAlign=top;rounded=0;spacing=0;spacingLeft=0;" vertex="1" parent="1">
          <mxGeometry x="405.39" y="1020" width="30.12" height="20" as="geometry" />
        </mxCell>
        <mxCell id="cygAK_lSfxoB2_aoQv2--115" value="\(y_{454}&#39;\)" style="rounded=0;whiteSpace=wrap;html=1;fillColor=#ffe6cc;strokeColor=#d79b00;" vertex="1" parent="1">
          <mxGeometry x="435.39" y="1040" width="30" height="20" as="geometry" />
        </mxCell>
        <mxCell id="cygAK_lSfxoB2_aoQv2--116" value="\(y_{455}&#39;\)" style="rounded=0;whiteSpace=wrap;html=1;fillColor=#ffe6cc;strokeColor=#d79b00;" vertex="1" parent="1">
          <mxGeometry x="465.39" y="1040" width="30" height="20" as="geometry" />
        </mxCell>
        <mxCell id="cygAK_lSfxoB2_aoQv2--117" value="&lt;font face=&quot;Roboto Mono&quot;&gt;453&lt;/font&gt;" style="text;html=1;align=center;verticalAlign=top;rounded=0;spacing=0;spacingLeft=0;" vertex="1" parent="1">
          <mxGeometry x="435.33" y="1020" width="30.12" height="20" as="geometry" />
        </mxCell>
        <mxCell id="cygAK_lSfxoB2_aoQv2--118" value="&lt;font face=&quot;Roboto Mono&quot;&gt;454&lt;/font&gt;" style="text;html=1;align=center;verticalAlign=top;rounded=0;spacing=0;spacingLeft=0;" vertex="1" parent="1">
          <mxGeometry x="465.45" y="1020" width="30.12" height="20" as="geometry" />
        </mxCell>
        <mxCell id="cygAK_lSfxoB2_aoQv2--119" value="&lt;font face=&quot;Roboto Mono&quot;&gt;i = 495&lt;/font&gt;" style="text;html=1;align=right;verticalAlign=top;rounded=0;spacing=0;spacingLeft=6;" vertex="1" parent="1">
          <mxGeometry x="170.36" y="1290" width="69.64" height="20" as="geometry" />
        </mxCell>
        <mxCell id="cygAK_lSfxoB2_aoQv2--120" value="&lt;font face=&quot;Roboto Mono&quot;&gt;i = 497&lt;/font&gt;" style="text;html=1;align=right;verticalAlign=top;rounded=0;spacing=0;spacingLeft=6;" vertex="1" parent="1">
          <mxGeometry x="170.36" y="1340" width="69.64" height="20" as="geometry" />
        </mxCell>
        <mxCell id="cygAK_lSfxoB2_aoQv2--121" value="" style="group" vertex="1" connectable="0" parent="1">
          <mxGeometry x="230.13" y="890" width="20" height="40" as="geometry" />
        </mxCell>
        <mxCell id="cygAK_lSfxoB2_aoQv2--5" value="" style="shape=waypoint;sketch=0;fillStyle=solid;size=6;pointerEvents=1;points=[];fillColor=none;resizable=0;rotatable=0;perimeter=centerPerimeter;snapToPoint=1;" vertex="1" parent="cygAK_lSfxoB2_aoQv2--121">
          <mxGeometry y="10" width="20" height="20" as="geometry" />
        </mxCell>
        <mxCell id="cygAK_lSfxoB2_aoQv2--6" value="" style="shape=waypoint;sketch=0;fillStyle=solid;size=6;pointerEvents=1;points=[];fillColor=none;resizable=0;rotatable=0;perimeter=centerPerimeter;snapToPoint=1;" vertex="1" parent="cygAK_lSfxoB2_aoQv2--121">
          <mxGeometry y="20" width="20" height="20" as="geometry" />
        </mxCell>
        <mxCell id="cygAK_lSfxoB2_aoQv2--7" value="" style="shape=waypoint;sketch=0;fillStyle=solid;size=6;pointerEvents=1;points=[];fillColor=none;resizable=0;rotatable=0;perimeter=centerPerimeter;snapToPoint=1;" vertex="1" parent="cygAK_lSfxoB2_aoQv2--121">
          <mxGeometry width="20" height="20" as="geometry" />
        </mxCell>
        <mxCell id="cygAK_lSfxoB2_aoQv2--122" value="" style="group" vertex="1" connectable="0" parent="1">
          <mxGeometry x="220" y="1240" width="20" height="40" as="geometry" />
        </mxCell>
        <mxCell id="cygAK_lSfxoB2_aoQv2--123" value="" style="shape=waypoint;sketch=0;fillStyle=solid;size=6;pointerEvents=1;points=[];fillColor=none;resizable=0;rotatable=0;perimeter=centerPerimeter;snapToPoint=1;" vertex="1" parent="cygAK_lSfxoB2_aoQv2--122">
          <mxGeometry y="10" width="20" height="20" as="geometry" />
        </mxCell>
        <mxCell id="cygAK_lSfxoB2_aoQv2--124" value="" style="shape=waypoint;sketch=0;fillStyle=solid;size=6;pointerEvents=1;points=[];fillColor=none;resizable=0;rotatable=0;perimeter=centerPerimeter;snapToPoint=1;" vertex="1" parent="cygAK_lSfxoB2_aoQv2--122">
          <mxGeometry y="20" width="20" height="20" as="geometry" />
        </mxCell>
        <mxCell id="cygAK_lSfxoB2_aoQv2--125" value="" style="shape=waypoint;sketch=0;fillStyle=solid;size=6;pointerEvents=1;points=[];fillColor=none;resizable=0;rotatable=0;perimeter=centerPerimeter;snapToPoint=1;" vertex="1" parent="cygAK_lSfxoB2_aoQv2--122">
          <mxGeometry width="20" height="20" as="geometry" />
        </mxCell>
        <mxCell id="cygAK_lSfxoB2_aoQv2--130" value="\(y_{497}&#39;\)" style="rounded=0;whiteSpace=wrap;html=1;fillColor=#d5e8d4;strokeColor=#82b366;" vertex="1" parent="1">
          <mxGeometry x="640.81" y="1340" width="30" height="20" as="geometry" />
        </mxCell>
        <mxCell id="cygAK_lSfxoB2_aoQv2--131" value="\(y_{498}&#39;\)" style="rounded=0;whiteSpace=wrap;html=1;fillColor=#f8cecc;strokeColor=#b85450;" vertex="1" parent="1">
          <mxGeometry x="670.81" y="1340" width="30" height="20" as="geometry" />
        </mxCell>
        <mxCell id="cygAK_lSfxoB2_aoQv2--132" value="\(y_{499}&#39;\)" style="rounded=0;whiteSpace=wrap;html=1;fillColor=#f8cecc;strokeColor=#b85450;" vertex="1" parent="1">
          <mxGeometry x="700.81" y="1340" width="30" height="20" as="geometry" />
        </mxCell>
        <mxCell id="cygAK_lSfxoB2_aoQv2--133" value="&lt;font face=&quot;Roboto Mono&quot;&gt;496&lt;/font&gt;" style="text;html=1;align=center;verticalAlign=top;rounded=0;spacing=0;spacingLeft=0;" vertex="1" parent="1">
          <mxGeometry x="640.56" y="1320" width="30.12" height="20" as="geometry" />
        </mxCell>
        <mxCell id="cygAK_lSfxoB2_aoQv2--134" value="&lt;font face=&quot;Roboto Mono&quot;&gt;497&lt;/font&gt;" style="text;html=1;align=center;verticalAlign=top;rounded=0;spacing=0;spacingLeft=0;" vertex="1" parent="1">
          <mxGeometry x="670.7499999999999" y="1320" width="30.12" height="20" as="geometry" />
        </mxCell>
        <mxCell id="cygAK_lSfxoB2_aoQv2--135" value="&lt;font face=&quot;Roboto Mono&quot;&gt;498&lt;/font&gt;" style="text;html=1;align=center;verticalAlign=top;rounded=0;spacing=0;spacingLeft=0;" vertex="1" parent="1">
          <mxGeometry x="700.8699999999999" y="1320" width="30.12" height="20" as="geometry" />
        </mxCell>
        <mxCell id="cygAK_lSfxoB2_aoQv2--136" value="\(y_{496}&#39;\)" style="rounded=0;whiteSpace=wrap;html=1;fillColor=#d5e8d4;strokeColor=#82b366;" vertex="1" parent="1">
          <mxGeometry x="610.7199999999999" y="1340" width="30" height="20" as="geometry" />
        </mxCell>
        <mxCell id="cygAK_lSfxoB2_aoQv2--137" value="&lt;font face=&quot;Roboto Mono&quot;&gt;495&lt;/font&gt;" style="text;html=1;align=center;verticalAlign=top;rounded=0;spacing=0;spacingLeft=0;" vertex="1" parent="1">
          <mxGeometry x="610.31" y="1320" width="30.12" height="20" as="geometry" />
        </mxCell>
        <mxCell id="cygAK_lSfxoB2_aoQv2--146" value="\(y_{495}&#39;\)" style="rounded=0;whiteSpace=wrap;html=1;fillColor=#d5e8d4;strokeColor=#82b366;" vertex="1" parent="1">
          <mxGeometry x="580.5" y="1290" width="30" height="20" as="geometry" />
        </mxCell>
        <mxCell id="cygAK_lSfxoB2_aoQv2--147" value="\(y_{496}&#39;\)" style="rounded=0;whiteSpace=wrap;html=1;fillColor=#f8cecc;strokeColor=#b85450;" vertex="1" parent="1">
          <mxGeometry x="610.5" y="1290" width="30" height="20" as="geometry" />
        </mxCell>
        <mxCell id="cygAK_lSfxoB2_aoQv2--148" value="\(y_{497}&#39;\)" style="rounded=0;whiteSpace=wrap;html=1;fillColor=#f8cecc;strokeColor=#b85450;" vertex="1" parent="1">
          <mxGeometry x="640.5" y="1290" width="30" height="20" as="geometry" />
        </mxCell>
        <mxCell id="cygAK_lSfxoB2_aoQv2--149" value="&lt;font face=&quot;Roboto Mono&quot;&gt;494&lt;/font&gt;" style="text;html=1;align=center;verticalAlign=top;rounded=0;spacing=0;spacingLeft=0;" vertex="1" parent="1">
          <mxGeometry x="580.25" y="1270" width="30.12" height="20" as="geometry" />
        </mxCell>
        <mxCell id="cygAK_lSfxoB2_aoQv2--150" value="&lt;font face=&quot;Roboto Mono&quot;&gt;495&lt;/font&gt;" style="text;html=1;align=center;verticalAlign=top;rounded=0;spacing=0;spacingLeft=0;" vertex="1" parent="1">
          <mxGeometry x="610.4399999999999" y="1270" width="30.12" height="20" as="geometry" />
        </mxCell>
        <mxCell id="cygAK_lSfxoB2_aoQv2--151" value="&lt;font face=&quot;Roboto Mono&quot;&gt;496&lt;/font&gt;" style="text;html=1;align=center;verticalAlign=top;rounded=0;spacing=0;spacingLeft=0;" vertex="1" parent="1">
          <mxGeometry x="640.56" y="1270" width="30.12" height="20" as="geometry" />
        </mxCell>
        <mxCell id="cygAK_lSfxoB2_aoQv2--152" value="\(y_{494}&#39;\)" style="rounded=0;whiteSpace=wrap;html=1;fillColor=#d5e8d4;strokeColor=#82b366;" vertex="1" parent="1">
          <mxGeometry x="550.41" y="1290" width="30" height="20" as="geometry" />
        </mxCell>
        <mxCell id="cygAK_lSfxoB2_aoQv2--153" value="&lt;font face=&quot;Roboto Mono&quot;&gt;493&lt;/font&gt;" style="text;html=1;align=center;verticalAlign=top;rounded=0;spacing=0;spacingLeft=0;" vertex="1" parent="1">
          <mxGeometry x="550" y="1270" width="30.12" height="20" as="geometry" />
        </mxCell>
        <mxCell id="cygAK_lSfxoB2_aoQv2--154" value="" style="group" vertex="1" connectable="0" parent="1">
          <mxGeometry x="490" y="1240" width="60.40999999999997" height="60" as="geometry" />
        </mxCell>
        <mxCell id="cygAK_lSfxoB2_aoQv2--127" value="" style="shape=waypoint;sketch=0;fillStyle=solid;size=6;pointerEvents=1;points=[];fillColor=none;resizable=0;rotatable=0;perimeter=centerPerimeter;snapToPoint=1;" vertex="1" parent="cygAK_lSfxoB2_aoQv2--154">
          <mxGeometry x="20" y="10" width="20" height="20" as="geometry" />
        </mxCell>
        <mxCell id="cygAK_lSfxoB2_aoQv2--128" value="" style="shape=waypoint;sketch=0;fillStyle=solid;size=6;pointerEvents=1;points=[];fillColor=none;resizable=0;rotatable=0;perimeter=centerPerimeter;snapToPoint=1;" vertex="1" parent="cygAK_lSfxoB2_aoQv2--154">
          <mxGeometry x="40.40999999999997" y="20" width="20" height="20" as="geometry" />
        </mxCell>
        <mxCell id="cygAK_lSfxoB2_aoQv2--129" value="" style="shape=waypoint;sketch=0;fillStyle=solid;size=6;pointerEvents=1;points=[];fillColor=none;resizable=0;rotatable=0;perimeter=centerPerimeter;snapToPoint=1;" vertex="1" parent="cygAK_lSfxoB2_aoQv2--154">
          <mxGeometry width="20" height="20" as="geometry" />
        </mxCell>
        <mxCell id="cygAK_lSfxoB2_aoQv2--161" value="" style="shape=curlyBracket;whiteSpace=wrap;html=1;rounded=1;flipH=1;labelPosition=right;verticalLabelPosition=middle;align=left;verticalAlign=middle;rotation=90;" vertex="1" parent="cygAK_lSfxoB2_aoQv2--154">
          <mxGeometry x="-35" y="-35" width="20" height="60" as="geometry" />
        </mxCell>
        <mxCell id="cygAK_lSfxoB2_aoQv2--40" value="" style="shape=waypoint;sketch=0;fillStyle=solid;size=6;pointerEvents=1;points=[];fillColor=none;resizable=0;rotatable=0;perimeter=centerPerimeter;snapToPoint=1;" vertex="1" parent="1">
          <mxGeometry x="500" y="1040" width="20" height="20" as="geometry" />
        </mxCell>
        <mxCell id="cygAK_lSfxoB2_aoQv2--41" value="" style="shape=waypoint;sketch=0;fillStyle=solid;size=6;pointerEvents=1;points=[];fillColor=none;resizable=0;rotatable=0;perimeter=centerPerimeter;snapToPoint=1;" vertex="1" parent="1">
          <mxGeometry x="510" y="1040" width="20" height="20" as="geometry" />
        </mxCell>
        <mxCell id="cygAK_lSfxoB2_aoQv2--42" value="" style="shape=waypoint;sketch=0;fillStyle=solid;size=6;pointerEvents=1;points=[];fillColor=none;resizable=0;rotatable=0;perimeter=centerPerimeter;snapToPoint=1;" vertex="1" parent="1">
          <mxGeometry x="520" y="1040" width="20" height="20" as="geometry" />
        </mxCell>
        <mxCell id="cygAK_lSfxoB2_aoQv2--155" value="\(y_{496}&#39;\)" style="rounded=0;whiteSpace=wrap;html=1;fillColor=#ffe6cc;strokeColor=#d79b00;" vertex="1" parent="1">
          <mxGeometry x="610.75" y="1040" width="30" height="20" as="geometry" />
        </mxCell>
        <mxCell id="cygAK_lSfxoB2_aoQv2--156" value="\(y_{495}&#39;\)" style="rounded=0;whiteSpace=wrap;html=1;fillColor=#ffe6cc;strokeColor=#d79b00;" vertex="1" parent="1">
          <mxGeometry x="580.75" y="1040" width="30" height="20" as="geometry" />
        </mxCell>
        <mxCell id="cygAK_lSfxoB2_aoQv2--157" value="\(y_{494}&#39;\)" style="rounded=0;whiteSpace=wrap;html=1;fillColor=#ffe6cc;strokeColor=#d79b00;" vertex="1" parent="1">
          <mxGeometry x="550.75" y="1040" width="30" height="20" as="geometry" />
        </mxCell>
        <mxCell id="cygAK_lSfxoB2_aoQv2--158" value="&lt;font face=&quot;Roboto Mono&quot;&gt;493&lt;/font&gt;" style="text;html=1;align=center;verticalAlign=top;rounded=0;spacing=0;spacingLeft=0;" vertex="1" parent="1">
          <mxGeometry x="550.63" y="1020" width="30.12" height="20" as="geometry" />
        </mxCell>
        <mxCell id="cygAK_lSfxoB2_aoQv2--159" value="&lt;font face=&quot;Roboto Mono&quot;&gt;494&lt;/font&gt;" style="text;html=1;align=center;verticalAlign=top;rounded=0;spacing=0;spacingLeft=0;" vertex="1" parent="1">
          <mxGeometry x="580.63" y="1020" width="30.12" height="20" as="geometry" />
        </mxCell>
        <mxCell id="cygAK_lSfxoB2_aoQv2--160" value="&lt;font face=&quot;Roboto Mono&quot;&gt;495&lt;/font&gt;" style="text;html=1;align=center;verticalAlign=top;rounded=0;spacing=0;spacingLeft=0;" vertex="1" parent="1">
          <mxGeometry x="610.75" y="1020" width="30.12" height="20" as="geometry" />
        </mxCell>
        <mxCell id="cygAK_lSfxoB2_aoQv2--162" value="&lt;font face=&quot;Roboto Mono&quot;&gt;window = 2&lt;/font&gt;" style="text;html=1;align=left;verticalAlign=top;rounded=0;spacing=0;spacingLeft=6;" vertex="1" parent="1">
          <mxGeometry x="400" y="1250" width="83.87" height="20" as="geometry" />
        </mxCell>
        <mxCell id="cygAK_lSfxoB2_aoQv2--163" value="\(y_{453}&#39;\)" style="rounded=0;whiteSpace=wrap;html=1;fillColor=#d5e8d4;strokeColor=#82b366;" vertex="1" parent="1">
          <mxGeometry x="323.5" y="1390" width="30" height="20" as="geometry" />
        </mxCell>
        <mxCell id="cygAK_lSfxoB2_aoQv2--164" value="\(y_{454}&#39;\)" style="rounded=0;whiteSpace=wrap;html=1;fillColor=#f8cecc;strokeColor=#b85450;" vertex="1" parent="1">
          <mxGeometry x="353.5" y="1390" width="30" height="20" as="geometry" />
        </mxCell>
        <mxCell id="cygAK_lSfxoB2_aoQv2--165" value="\(y_{455}&#39;\)" style="rounded=0;whiteSpace=wrap;html=1;fillColor=#f8cecc;strokeColor=#b85450;" vertex="1" parent="1">
          <mxGeometry x="383.5" y="1390" width="30" height="20" as="geometry" />
        </mxCell>
        <mxCell id="cygAK_lSfxoB2_aoQv2--166" value="&lt;font face=&quot;Roboto Mono&quot;&gt;452&lt;/font&gt;" style="text;html=1;align=center;verticalAlign=top;rounded=0;spacing=0;spacingLeft=0;" vertex="1" parent="1">
          <mxGeometry x="323.25" y="1370" width="30.12" height="20" as="geometry" />
        </mxCell>
        <mxCell id="cygAK_lSfxoB2_aoQv2--167" value="&lt;font face=&quot;Roboto Mono&quot;&gt;453&lt;/font&gt;" style="text;html=1;align=center;verticalAlign=top;rounded=0;spacing=0;spacingLeft=0;" vertex="1" parent="1">
          <mxGeometry x="353.44" y="1370" width="30.12" height="20" as="geometry" />
        </mxCell>
        <mxCell id="cygAK_lSfxoB2_aoQv2--168" value="&lt;font face=&quot;Roboto Mono&quot;&gt;454&lt;/font&gt;" style="text;html=1;align=center;verticalAlign=top;rounded=0;spacing=0;spacingLeft=0;" vertex="1" parent="1">
          <mxGeometry x="383.56" y="1370" width="30.12" height="20" as="geometry" />
        </mxCell>
        <mxCell id="cygAK_lSfxoB2_aoQv2--169" value="\(y_{452}&#39;\)" style="rounded=0;whiteSpace=wrap;html=1;fillColor=#d5e8d4;strokeColor=#82b366;" vertex="1" parent="1">
          <mxGeometry x="293.41" y="1390" width="30" height="20" as="geometry" />
        </mxCell>
        <mxCell id="cygAK_lSfxoB2_aoQv2--170" value="&lt;font face=&quot;Roboto Mono&quot;&gt;451&lt;/font&gt;" style="text;html=1;align=center;verticalAlign=top;rounded=0;spacing=0;spacingLeft=0;" vertex="1" parent="1">
          <mxGeometry x="293" y="1370" width="30.12" height="20" as="geometry" />
        </mxCell>
        <mxCell id="cygAK_lSfxoB2_aoQv2--171" value="\(y_{453}&#39;\)" style="rounded=0;whiteSpace=wrap;html=1;fillColor=#d5e8d4;strokeColor=#82b366;" vertex="1" parent="1">
          <mxGeometry x="324.03" y="1450" width="30" height="20" as="geometry" />
        </mxCell>
        <mxCell id="cygAK_lSfxoB2_aoQv2--172" value="\(y_{454}&#39;\)" style="rounded=0;whiteSpace=wrap;html=1;fillColor=#f8cecc;strokeColor=#b85450;" vertex="1" parent="1">
          <mxGeometry x="354.03" y="1450" width="30" height="20" as="geometry" />
        </mxCell>
        <mxCell id="cygAK_lSfxoB2_aoQv2--173" value="\(y_{452}&#39;\)" style="rounded=0;whiteSpace=wrap;html=1;fillColor=#d5e8d4;strokeColor=#82b366;" vertex="1" parent="1">
          <mxGeometry x="293.94" y="1450" width="30" height="20" as="geometry" />
        </mxCell>
        <mxCell id="cygAK_lSfxoB2_aoQv2--174" value="" style="endArrow=none;html=1;rounded=0;" edge="1" parent="1">
          <mxGeometry width="50" height="50" relative="1" as="geometry">
            <mxPoint x="270" y="1380" as="sourcePoint" />
            <mxPoint x="440" y="1390" as="targetPoint" />
            <Array as="points">
              <mxPoint x="380" y="1240" />
            </Array>
          </mxGeometry>
        </mxCell>
        <mxCell id="cygAK_lSfxoB2_aoQv2--175" value="" style="rounded=0;whiteSpace=wrap;html=1;fillColor=none;dashed=1;" vertex="1" parent="1">
          <mxGeometry x="360" y="1180" width="160" height="60" as="geometry" />
        </mxCell>
        <mxCell id="cygAK_lSfxoB2_aoQv2--176" value="\(y_{454}&#39;\)" style="rounded=0;whiteSpace=wrap;html=1;fillColor=#d5e8d4;strokeColor=#82b366;" vertex="1" parent="1">
          <mxGeometry x="353.67999999999995" y="1490" width="30" height="20" as="geometry" />
        </mxCell>
        <mxCell id="cygAK_lSfxoB2_aoQv2--177" value="\(y_{455}&#39;\)" style="rounded=0;whiteSpace=wrap;html=1;fillColor=#f8cecc;strokeColor=#b85450;" vertex="1" parent="1">
          <mxGeometry x="383.67999999999995" y="1490" width="30" height="20" as="geometry" />
        </mxCell>
        <mxCell id="cygAK_lSfxoB2_aoQv2--178" value="\(y_{453}&#39;\)" style="rounded=0;whiteSpace=wrap;html=1;fillColor=#d5e8d4;strokeColor=#82b366;" vertex="1" parent="1">
          <mxGeometry x="323.59" y="1490" width="30" height="20" as="geometry" />
        </mxCell>
        <mxCell id="cygAK_lSfxoB2_aoQv2--179" value="" style="endArrow=classic;html=1;rounded=0;exitX=0.5;exitY=0;exitDx=0;exitDy=0;entryX=0.5;entryY=1;entryDx=0;entryDy=0;" edge="1" parent="1" source="cygAK_lSfxoB2_aoQv2--172" target="cygAK_lSfxoB2_aoQv2--164">
          <mxGeometry width="50" height="50" relative="1" as="geometry">
            <mxPoint x="410" y="1420" as="sourcePoint" />
            <mxPoint x="460" y="1370" as="targetPoint" />
          </mxGeometry>
        </mxCell>
        <mxCell id="cygAK_lSfxoB2_aoQv2--180" value="" style="endArrow=classic;html=1;rounded=0;exitX=0.5;exitY=0;exitDx=0;exitDy=0;entryX=0.5;entryY=1;entryDx=0;entryDy=0;" edge="1" parent="1" source="cygAK_lSfxoB2_aoQv2--177" target="cygAK_lSfxoB2_aoQv2--165">
          <mxGeometry width="50" height="50" relative="1" as="geometry">
            <mxPoint x="379" y="1460" as="sourcePoint" />
            <mxPoint x="379" y="1420" as="targetPoint" />
          </mxGeometry>
        </mxCell>
        <mxCell id="cygAK_lSfxoB2_aoQv2--181" value="\(y&#39;_{454}&amp;nbsp;&lt;br&gt;= \theta_0 \epsilon&#39;_{454}&lt;br&gt;+ \theta_1 \epsilon&#39;_{453}&lt;br&gt;+ \theta_2 \epsilon&#39;_{452}\)" style="text;align=right;verticalAlign=top;rounded=0;spacing=0;spacingLeft=6;html=1;" vertex="1" parent="1">
          <mxGeometry x="50.18" y="1450" width="190" height="30" as="geometry" />
        </mxCell>
        <mxCell id="cygAK_lSfxoB2_aoQv2--182" value="&lt;font face=&quot;Roboto Mono&quot;&gt;\(\vec{\theta} = &lt;br&gt;\begin{bmatrix}&lt;br&gt;1. &amp;amp; 0.86270551 &amp;amp; 0.25321397&lt;br&gt;\end{bmatrix}\)&lt;/font&gt;" style="text;html=1;align=right;verticalAlign=top;rounded=0;spacing=0;spacingLeft=6;" vertex="1" parent="1">
          <mxGeometry x="30.540000000000006" y="1410" width="209.64" height="20" as="geometry" />
        </mxCell>
        <mxCell id="cygAK_lSfxoB2_aoQv2--183" value="\(y&#39;_{455}&amp;nbsp;&lt;br&gt;= \theta_0 \epsilon&#39;_{455}&lt;br&gt;+ \theta_1 \epsilon&#39;_{454}&lt;br&gt;+ \theta_2 \epsilon&#39;_{453}\)" style="text;align=right;verticalAlign=top;rounded=0;spacing=0;spacingLeft=6;html=1;" vertex="1" parent="1">
          <mxGeometry x="90" y="1490" width="190" height="30" as="geometry" />
        </mxCell>
      </root>
    </mxGraphModel>
  </diagram>
</mxfile>
